# xmcd CD database file
#
# Track frame offsets:
#	183
#	16280
#	28968
#	44025
#	58903
#	80240
#	95613
#	110258
#	125983
#	139020
#	154063
#	164725
#	178013
#	193545
#
# Disc length: 2780 seconds
#
# Revision: 2
# Processed by: cddbd v1.5.2PL0 Copyright (c) Steve Scherf et al.
# Submitted via: CDex 1.51
#
DISCID=d20ada0e
DTITLE=Mungo Jerry - In The Summertime
DYEAR=1983
DGENRE=Pop
TTITLE0=In The Summertime
TTITLE1=Baby Jump
TTITLE2=Open Up
TTITLE3=Lady Rose
TTITLE4=Mighty Man
TTITLE5=You Don't Have To Be In The Army To Fight In The War
TTITLE6=Long Legged Woman Dressed In Black
TTITLE7=Hello Nadine
TTITLE8=Summertime Holiday
TTITLE9=Callin'
TTITLE10=Gone, Gone, Gone
TTITLE11=Heavy Foot Stomp
TTITLE12=There Gores My Heart Again
TTITLE13=Next To Me
EXTD=YEAR: 1983
EXTT0=
EXTT1=
EXTT2=
EXTT3=
EXTT4=
EXTT5=
EXTT6=
EXTT7=
EXTT8=
EXTT9=
EXTT10=
EXTT11=
EXTT12=
EXTT13=
PLAYORDER=
